# xmcd
#
# Track frame offsets:
#	150
#	13666
#	25869
#	43106
#	55005
#	66948
#	79373
#	91349
#	105247
#	118628
#
# Disc length: 1740 seconds
# Revision: 0
# Processed by: cddbd v1.5.2PL0 Copyright (c) Steve Scherf et al.
# Submitted via: dBpowerAMP V12.0
#
DISCID=7806ca0a
DTITLE=Jerry Lane - Pure Country
DYEAR=2004
DGENRE=Country
TTITLE0=Nashville Tennessee
TTITLE1=Your Cheating Heart
TTITLE2=It's Only Me
TTITLE3=Howlin'
TTITLE4=Cold Cold Heart
TTITLE5=Move It On Over
TTITLE6=Take These Chains From My Heart
TTITLE7=Just A Handshake
TTITLE8=Faster Than A Tear Drops
TTITLE9=Jesus Is My Everything
EXTD=
EXTT0=
EXTT1=
EXTT2=
EXTT3=
EXTT4=
EXTT5=
EXTT6=
EXTT7=
EXTT8=
EXTT9=
PLAYORDER=
